<svg xmlns="http://www.w3.org/2000/svg" fill="#3C4C45" viewBox="0 0 24 24" width="24px" height="24px">
  <path d="M12 2.163c3.204 0 3.584.012 4.85.07 1.17.056 1.98.24 2.44.415a4.92 4.92 0 011.675 1.08 4.92 4.92 0 011.08 1.676c.176.462.36 1.27.416 2.44.058 1.265.069 1.645.069 4.849 0 3.204-.012 3.584-.069 4.85-.056 1.17-.24 1.98-.415 2.44a4.92 4.92 0 01-1.08 1.675 4.92 4.92 0 01-1.675 1.08c-.462.176-1.27.36-2.44.416-1.265.058-1.645.069-4.849.069-3.204 0-3.584-.012-4.85-.069-1.17-.056-1.98-.24-2.44-.415a4.92 4.92 0 01-1.675-1.08 4.92 4.92 0 01-1.08-1.675c-.176-.462-.36-1.27-.416-2.44C2.175 15.584 2.163 15.204 2.163 12c0-3.204.012-3.584.069-4.85.056-1.17.24-1.98.415-2.44a4.92 4.92 0 011.08-1.675 4.92 4.92 0 011.675-1.08c.462-.176 1.27-.36 2.44-.416C8.416 2.175 8.796 2.163 12 2.163zm0-2.163C8.736 0 8.332.013 7.052.072 5.78.13 4.67.326 3.743.678a6.928 6.928 0 00-2.5 1.62 6.927 6.927 0 00-1.62 2.5c-.352.927-.548 2.037-.606 3.31C-.013 8.332 0 8.736 0 12c0 3.264.013 3.668.072 4.948.058 1.273.254 2.383.606 3.31a6.928 6.928 0 001.62 2.5 6.928 6.928 0 002.5 1.62c.927.352 2.037.548 3.31.606C8.332 23.987 8.736 24 12 24s3.668-.013 4.948-.072c1.273-.058 2.383-.254 3.31-.606a6.928 6.928 0 002.5-1.62 6.928 6.928 0 001.62-2.5c.352-.927.548-2.037.606-3.31C23.987 15.668 24 15.264 24 12s-.013-3.668-.072-4.948c-.058-1.273-.254-2.383-.606-3.31a6.928 6.928 0 00-1.62-2.5 6.928 6.928 0 00-2.5-1.62c-.927-.352-2.037-.548-3.31-.606C15.668.013 15.264 0 12 0z"/>
  <path d="M12 5.838a6.162 6.162 0 100 12.324 6.162 6.162 0 000-12.324zm0 10.162a3.999 3.999 0 110-7.998 3.999 3.999 0 010 7.998z"/>
  <circle cx="18.406" cy="5.594" r="1.44"/>
</svg>
